<svg xmlns="http://www.w3.org/2000/svg" viewBox="0 0 48 48" fill="none" aria-hidden="true">
  <path d="M10 18h28v8a4 4 0 0 1-4 4H14a4 4 0 0 1-4-4v-8z" stroke="#111827" stroke-width="2.2" stroke-linejoin="round"/>
  <path d="M16 18V12h16v6" stroke="#111827" stroke-width="2.2" stroke-linejoin="round"/>
  <circle cx="24" cy="16" r="2.2" stroke="#111827" stroke-width="2"/>
  <path d="M18 38V30M24 40V30M30 38V30" stroke="#111827" stroke-width="2.2" stroke-linecap="round"/>
  <path d="M18 38c0 2.2-1.3 4-3 4M24 40c0 2.2-1.3 4-3 4M24 40c0 2.2 1.3 4 3 4M30 38c0 2.2 1.3 4 3 4" stroke="#111827" stroke-width="2.2" stroke-linecap="round"/>
</svg>
